<svg id="Capa_1" xmlns="http://www.w3.org/2000/svg" viewBox="-426 1745 512 512"><style>.st0{fill:#020202}</style><g id="group-63svg"><path id="path-1_58_" d="M-19.5 2181.7c-5.9 0-10.6-4.8-10.6-10.6 0-77.1-62.8-139.9-139.9-139.9s-139.9 62.8-139.9 139.9c0 5.9-4.8 10.6-10.6 10.6-5.9 0-10.6-4.8-10.6-10.6 0-88.8 72.3-161.1 161.1-161.1s161.1 72.3 161.1 161.1c0 5.9-4.8 10.6-10.6 10.6z"/><path id="path-2_58_" d="M-177.1 2019.7c-51.2 0-92.9-41.7-92.9-92.9s41.7-92.9 92.9-92.9 92.9 41.7 92.9 92.9-41.7 92.9-92.9 92.9zm0-164.5c-39.5 0-71.7 32.1-71.7 71.7 0 39.5 32.1 71.7 71.7 71.7s71.7-32.1 71.7-71.7c0-39.5-32.2-71.7-71.7-71.7z"/></g><path class="st0" d="M-170 2240.5c-64 0-124.1-24.9-169.4-70.1-45.2-45.2-70.1-105.4-70.1-169.4s24.9-124.1 70.1-169.4c45.2-45.2 105.4-70.1 169.4-70.1s124.1 24.9 169.4 70.1c45.2 45.2 70.1 105.4 70.1 169.4S44.6 2125.1-.6 2170.4c-45.3 45.2-105.4 70.1-169.4 70.1zm0-463c-123.2 0-223.5 100.3-223.5 223.5s100.3 223.5 223.5 223.5S53.5 2124.2 53.5 2001-46.8 1777.5-170 1777.5z"/></svg>